<svg width="104" height="40" viewBox="0 0 104 40" fill="none" xmlns="http://www.w3.org/2000/svg">
<path d="M35.44 25.2C35.7067 25.4133 35.84 25.6933 35.84 26.04C35.84 26.3867 35.72 26.68 35.48 26.92H29.8L32.08 34.52C32.1333 34.7067 32.16 34.9467 32.16 35.24C32.16 35.5333 31.9733 35.8933 31.6 36.32C31.2267 36.7467 30.84 36.96 30.44 36.96C29.6933 36.96 29.1067 36.7733 28.68 36.4L25.84 26.92H15.64L13.64 32.36C12.9467 34.2 11.9467 35.7867 10.64 37.12C9.33333 38.4533 7.64 39.12 5.56 39.12C3.98667 39.12 2.76 38.7067 1.88 37.88C0.973333 37.0533 0.52 35.8533 0.52 34.28C0.52 32.7067 0.906667 31.2933 1.68 30.04C2.42667 28.76 3.42667 27.76 4.68 27.04C7.18667 25.6 9.98667 24.88 13.08 24.88L18.92 8.4C19.1867 7.62667 19.4667 7.05333 19.76 6.68C18.9333 3.90666 18.52 2.38666 18.52 2.12C18.52 1.82667 18.7067 1.50667 19.08 1.16C19.48 0.786665 19.88 0.599998 20.28 0.599998C21.0533 0.599998 21.6533 0.786665 22.08 1.16L29.16 24.88L34.4 24.84C34.8533 24.84 35.2 24.96 35.44 25.2ZM5.56 37.44C7.56 37.44 9.29333 35.4267 10.76 31.4L12.32 26.96C9.38667 26.96 7.05333 27.6533 5.32 29.04C3.61333 30.4267 2.76 32.2533 2.76 34.52C2.76 35.4533 3.01333 36.1733 3.52 36.68C4.05333 37.1867 4.73333 37.44 5.56 37.44ZM21.28 9.76L16.4 24.88H25.2L21.28 9.76ZM45.2047 25.96C44.138 25.5867 43.0714 25.2 42.0047 24.8C40.9647 24.3733 40.0847 23.7733 39.3647 23C38.6447 22.2267 38.2847 21.24 38.2847 20.04C38.2847 18.8133 38.8447 17.8267 39.9647 17.08C41.0847 16.3067 42.7114 15.92 44.8447 15.92C47.0047 15.92 48.6847 16.2933 49.8847 17.04C51.1114 17.7867 51.7247 18.6533 51.7247 19.64C51.7247 20.12 51.538 20.5067 51.1647 20.8C50.818 21.0933 50.4714 21.24 50.1247 21.24C49.458 21.24 49.018 21.08 48.8047 20.76C48.9647 20.5733 49.0447 20.2133 49.0447 19.68C49.0447 19.12 48.6314 18.6133 47.8047 18.16C46.978 17.7067 46.058 17.48 45.0447 17.48C44.0314 17.48 43.1914 17.6667 42.5247 18.04C41.858 18.4133 41.5247 18.9867 41.5247 19.76C41.5247 20.5067 41.898 21.16 42.6447 21.72C43.418 22.28 44.338 22.7467 45.4047 23.12C46.498 23.4933 47.578 23.8933 48.6447 24.32C49.738 24.7467 50.658 25.36 51.4047 26.16C52.178 26.9333 52.5647 27.8933 52.5647 29.04C52.5647 30.7467 51.818 32.0267 50.3247 32.88C48.858 33.7067 46.9114 34.12 44.4847 34.12C42.0847 34.12 40.1247 33.4267 38.6047 32.04C37.1114 30.6267 36.3647 28.88 36.3647 26.8C36.3647 26.0533 36.5114 25.4667 36.8047 25.04C37.098 24.6133 37.4314 24.4 37.8047 24.4C38.498 24.4 38.898 24.52 39.0047 24.76L39.0847 24.88C38.9247 25.28 38.8447 25.7733 38.8447 26.36C38.8447 28.1467 39.3647 29.6267 40.4047 30.8C41.4447 31.9733 42.8847 32.56 44.7247 32.56C47.5514 32.56 48.978 31.56 49.0047 29.56C49.0047 28.04 47.738 26.84 45.2047 25.96ZM55.1941 12C54.7407 11.5467 54.5141 10.9867 54.5141 10.32C54.5141 9.65333 54.7407 9.09333 55.1941 8.64C55.6474 8.16 56.2074 7.92 56.8741 7.92C57.5407 7.92 58.1007 8.16 58.5541 8.64C59.0341 9.09333 59.2741 9.65333 59.2741 10.32C59.2741 10.9867 59.0341 11.5467 58.5541 12C58.1007 12.4533 57.5407 12.68 56.8741 12.68C56.2074 12.68 55.6474 12.4533 55.1941 12ZM55.0341 18.36C55.0341 17.56 55.2341 16.96 55.6341 16.56C56.0341 16.1333 56.5407 15.92 57.1541 15.92C57.7674 15.92 58.2607 16.1067 58.6341 16.48V27.96C58.6341 29.48 58.9274 30.6267 59.5141 31.4C60.1007 32.1733 60.9007 32.56 61.9141 32.56C62.9274 32.56 63.8741 31.9467 64.7541 30.72C65.6341 29.4933 66.0741 27.5067 66.0741 24.76C66.1274 24.6 66.3274 24.52 66.6741 24.52C67.1541 24.52 67.3941 25.2267 67.3941 26.64C67.3941 28.6933 66.8341 30.4533 65.7141 31.92C64.5941 33.3867 63.1674 34.12 61.4341 34.12C59.2741 34.12 57.6607 33.48 56.5941 32.2C55.5541 30.92 55.0341 29.1067 55.0341 26.76V18.36ZM87.5241 24.52C88.0041 24.52 88.2441 25.2267 88.2441 26.64C88.2441 28.8533 87.7374 30.6533 86.7241 32.04C85.7107 33.4267 84.3107 34.12 82.5241 34.12C80.7374 34.12 79.2174 33.5333 77.9641 32.36C76.7107 31.16 75.9241 29.72 75.6041 28.04C73.8174 28.7867 71.8841 29.2133 69.8041 29.32V33.56C69.5374 33.9333 69.0707 34.12 68.4041 34.12C67.7374 34.12 67.2041 33.92 66.8041 33.52C66.4041 33.0933 66.2041 32.48 66.2041 31.68V11.64C66.2041 8.17333 66.5374 5.66667 67.2041 4.12C67.8707 2.54666 69.1507 1.76 71.0441 1.76C72.0574 1.76 72.8441 2.18666 73.4041 3.04C73.9641 3.89333 74.2441 5.10667 74.2441 6.68C74.2441 9.53333 72.7641 12.44 69.8041 15.4V19.24C71.0041 17.0267 72.9241 15.92 75.5641 15.92C77.2441 15.92 78.5907 16.36 79.6041 17.24C80.6441 18.12 81.1641 19.32 81.1641 20.84C81.1641 22.8933 80.2841 24.6933 78.5241 26.24C78.6574 27.8667 79.1507 29.3333 80.0041 30.64C80.8574 31.92 81.9374 32.56 83.2441 32.56C84.2574 32.56 85.1241 31.9333 85.8441 30.68C86.5641 29.4 86.9241 27.4267 86.9241 24.76C86.9507 24.6 87.1507 24.52 87.5241 24.52ZM77.6441 20.88C77.6441 19.76 77.4041 18.8933 76.9241 18.28C76.4441 17.64 75.8307 17.32 75.0841 17.32C73.6174 17.32 72.3641 18.1067 71.3241 19.68C70.3107 21.2533 69.8041 23.9467 69.8041 27.76C72.0974 27.52 73.9774 26.7333 75.4441 25.4C76.9107 24.04 77.6441 22.5333 77.6441 20.88ZM69.8041 13.48C71.6174 11.1333 72.5241 8.85333 72.5241 6.64C72.5241 4.42667 72.0441 3.32 71.0841 3.32C70.5507 3.32 70.2041 3.93333 70.0441 5.16C69.8841 6.38667 69.8041 9.16 69.8041 13.48ZM95.1034 15.92C97.4768 15.92 99.4101 16.7067 100.903 18.28C102.397 19.8533 103.143 22 103.143 24.72C103.143 27.4133 102.437 29.6533 101.023 31.44C99.6368 33.2267 97.7701 34.12 95.4234 34.12C93.0768 34.12 91.1168 33.32 89.5434 31.72C87.9968 30.0933 87.2234 27.8533 87.2234 25C87.2234 22.12 87.9434 19.8933 89.3834 18.32C90.8501 16.72 92.7568 15.92 95.1034 15.92ZM95.1434 17.48C94.4234 17.48 93.7968 17.6667 93.2634 18.04C92.7568 18.3867 92.5034 18.8933 92.5034 19.56C92.5034 21.2667 93.1701 22.9067 94.5034 24.48C95.8368 26.0267 97.4234 27.0533 99.2634 27.56C99.3168 26.5467 99.3434 25.68 99.3434 24.96C99.3434 22.1867 99.0501 20.2533 98.4634 19.16C97.8768 18.04 96.7701 17.48 95.1434 17.48ZM91.0234 24.96C91.0234 27.68 91.3568 29.6267 92.0234 30.8C92.7168 31.9733 93.8368 32.56 95.3834 32.56C96.4501 32.56 97.2634 32.2933 97.8234 31.76C98.4101 31.2 98.8101 30.3067 99.0234 29.08C97.2901 28.7067 95.6901 27.92 94.2234 26.72C92.7834 25.52 91.7301 24.1867 91.0634 22.72C91.0368 23.1733 91.0234 23.92 91.0234 24.96Z" fill="#006ECF"/>
</svg>
