<svg width="36" height="36" viewBox="0 0 36 36" fill="none" xmlns="http://www.w3.org/2000/svg">
<path d="M31.2449 12.015L21.4199 4.155C19.4999 2.625 16.4999 2.61 14.5949 4.14L4.76994 12.015C3.35994 13.14 2.50494 15.39 2.80494 17.16L4.69494 28.47C5.12994 31.005 7.48494 33 10.0499 33H25.9499C28.4849 33 30.8849 30.96 31.3199 28.455L33.2099 17.145C33.4799 15.39 32.6249 13.14 31.2449 12.015ZM19.1249 27C19.1249 27.615 18.6149 28.125 17.9999 28.125C17.3849 28.125 16.8749 27.615 16.8749 27V22.5C16.8749 21.885 17.3849 21.375 17.9999 21.375C18.6149 21.375 19.1249 21.885 19.1249 22.5V27Z" fill="#006ECF"/>
</svg>
