<svg width="28" height="28" viewBox="0 0 28 28" fill="none" xmlns="http://www.w3.org/2000/svg">
<path d="M18.9934 25.7833H14.5601C13.9068 25.7833 12.4834 25.585 11.7251 24.8267L8.19008 22.0967L9.26342 20.7083L12.8801 23.5083C13.1718 23.7883 13.9068 24.0217 14.5601 24.0217H18.9934C20.0434 24.0217 21.1751 23.1817 21.4084 22.2367L24.2318 13.6617C24.4184 13.1483 24.3834 12.6817 24.1384 12.3433C23.8818 11.9817 23.4151 11.7717 22.8434 11.7717H18.1768C17.5701 11.7717 17.0101 11.515 16.6251 11.0717C16.2284 10.6167 16.0534 10.01 16.1468 9.38001L16.7301 5.63501C16.8701 4.98168 16.4268 4.24668 15.7968 4.03668C15.2251 3.82668 14.4901 4.13001 14.2334 4.50334L9.45008 11.62L8.00342 10.6517L12.7868 3.53501C13.5218 2.43834 15.1318 1.91334 16.3918 2.39168C17.8501 2.87001 18.7834 4.48001 18.4567 5.97334L17.8851 9.64834C17.8734 9.73001 17.8734 9.84668 17.9551 9.94001C18.0134 9.99834 18.0951 10.0333 18.1884 10.0333H22.8551C23.9984 10.0333 24.9901 10.5117 25.5734 11.34C26.1451 12.145 26.2618 13.2067 25.8884 14.2333L23.1001 22.7267C22.6684 24.4183 20.8718 25.7833 18.9934 25.7833Z" fill="#292D32"/>
<path d="M6.27686 24.5H5.11019C2.95186 24.5 1.90186 23.485 1.90186 21.4084V9.97503C1.90186 7.89836 2.95186 6.88336 5.11019 6.88336H6.27686C8.43519 6.88336 9.48519 7.89836 9.48519 9.97503V21.4084C9.48519 23.485 8.43519 24.5 6.27686 24.5ZM5.11019 8.63336C3.83852 8.63336 3.65186 8.9367 3.65186 9.97503V21.4084C3.65186 22.4467 3.83852 22.75 5.11019 22.75H6.27686C7.54852 22.75 7.73519 22.4467 7.73519 21.4084V9.97503C7.73519 8.9367 7.54852 8.63336 6.27686 8.63336H5.11019Z" fill="#292D32"/>
</svg>
